<svg version="1.1" id="Layer_1" xmlns="http://www.w3.org/2000/svg" x="0" y="0" viewBox="0 0 100.4 100.4" xml:space="preserve"><style/><path d="M84.2 92L72.7 69c-.6-1.1-.7-1.4-1-2L57.4 38.5V17.2h6.2c.8 0 1.5-.7 1.5-1.5V8c0-.8-.7-1.5-1.5-1.5H32.8c-.8 0-1.5.7-1.5 1.5v7.7c0 .8.7 1.5 1.5 1.5H39v21.2L24.7 67c-.3.6-.5 1.1-1 2L12.2 92c-.2.5-.2 1 .1 1.5s.8.7 1.3.7h69.3c.5 0 1-.3 1.3-.7s.2-1 0-1.5zM41.8 39.5c.1-.2.2-.4.2-.7V15.7c0-.8-.7-1.5-1.5-1.5h-6.2V9.5h27.8v4.7h-6.2c-.8 0-1.5.7-1.5 1.5v23.1c0 .2.1.5.2.7l14.1 28.1c-.5.3-.8.6-1.2.8-.6.5-1 .8-2 .8s-1.3-.3-2-.8c-.8-.6-1.9-1.5-3.8-1.5-2 0-3 .9-3.8 1.5-.6.5-1 .8-1.9.8-.9 0-1.3-.3-1.9-.8-.8-.6-1.9-1.5-3.8-1.5-2 0-3 .9-3.8 1.5-.6.5-1 .8-1.9.8s-1.3-.3-1.9-.8c-.8-.6-1.9-1.5-3.8-1.5s-3 .9-3.8 1.5c-.6.5-1 .8-1.9.8s-1.3-.3-1.9-.8c-.3-.3-.7-.6-1.2-.8l13.7-28.1zM16 91.2l10.4-20.9c.2.1.4.3.6.5.8.6 1.9 1.5 3.8 1.5 2 0 3-.9 3.8-1.5.6-.5 1-.8 1.9-.8s1.3.3 1.9.8c.8.6 1.9 1.5 3.8 1.5s3-.9 3.8-1.5c.6-.5 1-.8 1.9-.8.9 0 1.3.3 1.9.8.8.6 1.9 1.5 3.8 1.5 2 0 3-.9 3.8-1.5.6-.5 1-.8 1.9-.8.9 0 1.3.3 2 .8.8.6 1.9 1.5 3.8 1.5s3-.9 3.8-1.5c.2-.2.4-.3.6-.5l10.4 20.9H16z"/></svg>