<svg data-name="Слой 2" xmlns="http://www.w3.org/2000/svg" viewBox="0 0 100 100"><path d="M26 21h-6a1.5 1.5 0 000 3h6a1.5 1.5 0 000-3zm14 0h-6a1.5 1.5 0 000 3h6a1.5 1.5 0 000-3z"/><path d="M86.44 27H84v-7.94A5.07 5.07 0 0078.94 14H17.06A5.07 5.07 0 0012 19.06v39.88A5.07 5.07 0 0017.06 64H21v11.44A4.57 4.57 0 0025.56 80h13.88A4.57 4.57 0 0044 75.44V64h7v11.44A4.57 4.57 0 0055.56 80h30.88A4.57 4.57 0 0091 75.44V31.56A4.57 4.57 0 0086.44 27zm-47 50H25.56A1.57 1.57 0 0124 75.44V45.56A1.57 1.57 0 0125.56 44h13.88A1.57 1.57 0 0141 45.56v29.88A1.57 1.57 0 0139.44 77zM44 61V45.56A4.57 4.57 0 0039.44 41H25.56A4.57 4.57 0 0021 45.56V61h-3.94A2.06 2.06 0 0115 58.94V19.06A2.06 2.06 0 0117.06 17h61.88A2.06 2.06 0 0181 19.06V27H55.56A4.57 4.57 0 0051 31.56V61zm44 14.44A1.57 1.57 0 0186.44 77H55.56A1.57 1.57 0 0154 75.44V31.56A1.57 1.57 0 0155.56 30h30.88A1.57 1.57 0 0188 31.56z"/><circle cx="71" cy="71" r="2.5" transform="rotate(-.2 71.495 71.745)"/></svg>