<svg data-name="Слой 1" xmlns="http://www.w3.org/2000/svg" viewBox="0 0 101 101"><path d="M69 36.5a19.4 19.4 0 00-13.75 5.71c-.38-.56-.79-1.08-1.21-1.62a5.5 5.5 0 01-.58-5.93 20.33 20.33 0 001.6-15.13A18.69 18.69 0 0038.06 6a18.35 18.35 0 00-13.68 5.11 19.35 19.35 0 00-5.95 14 20.16 20.16 0 002.35 9.44 5.5 5.5 0 01-.6 5.95 22 22 0 00-4.68 13.65c0 11.24 8 20.79 18.22 21.75.37 0 .81.06 1.28.07V93.5a1.5 1.5 0 003 0V76c1 0 1.89-.06 2.56-.11a18.92 18.92 0 0013.17-7.41A17.64 17.64 0 0066 75.41c.54 0 1.25.08 2 .09v18a1.5 1.5 0 003 0v-18l1.14-.07c9.17-.79 16.36-9.27 16.36-19.32A19.56 19.56 0 0069 36.5zM40.3 72.88c-.59 0-1.42.08-2.3.1V25.5a1.5 1.5 0 00-3 0v33.38l-7.94-7.94a1.5 1.5 0 00-2.12 2.12l10 10H35V73l-1-.06c-8.69-.82-15.5-9.06-15.5-18.76a19 19 0 014-11.82 8.5 8.5 0 00.88-9.2 17.16 17.16 0 01-2-8 16.34 16.34 0 015-11.79A15.37 15.37 0 0137.91 9a15.69 15.69 0 0114.28 11.36 17.31 17.31 0 01-1.37 12.88 8.51 8.51 0 00.86 9.19 23 23 0 011.55 2.18 19.49 19.49 0 00-3.73 11.46A20.32 20.32 0 0052 65.8a16.13 16.13 0 01-11.7 7.08zm31.58-.49l-.89.05v-5.83l.12-.11 8-9a1.5 1.5 0 10-2.24-2L71 62.12V49.5a1.5 1.5 0 00-3 0v23c-.67 0-1.3 0-1.75-.07-7.71-.71-13.75-7.89-13.75-16.35a16.5 16.5 0 1133 0c0 8.49-5.98 15.66-13.61 16.32z"/></svg>