<?xml version="1.0" encoding="UTF-8"?>
<svg xmlns="http://www.w3.org/2000/svg" xmlns:xlink="http://www.w3.org/1999/xlink" width="160pt" height="160pt" viewBox="0 0 160 160" version="1.1">
<g id="surface1">
<path style=" stroke:none;fill-rule:nonzero;fill:rgb(0%,0%,0%);fill-opacity:1;" d="M 124.539063 97.886719 C 125.6875 92.003906 126.367188 86.027344 126.597656 79.964844 C 126.746094 78.574219 126.816406 77.175781 126.816406 75.746094 C 126.816406 75.40625 126.800781 75.066406 126.800781 74.726563 C 131.339844 72.40625 135.71875 69.726563 139.867188 66.613281 C 144.019531 63.503906 147.878906 60.054688 151.40625 56.296875 C 151.679688 58.09375 151.816406 59.933594 151.816406 61.816406 C 151.816406 78.945313 140.269531 93.425781 124.539063 97.886719 M 119.488281 98.933594 C 120.800781 97.074219 121.960938 95.09375 122.9375 93.027344 C 122.648438 94.863281 122.316406 96.695313 121.9375 98.515625 C 121.128906 98.683594 120.308594 98.824219 119.488281 98.933594 M 114.359375 99.285156 C 101.390625 99.285156 89.949219 92.664063 83.21875 82.625 C 84.066406 83.144531 84.960938 83.625 85.878906 84.046875 C 85.90625 84.066406 85.9375 84.066406 85.96875 84.074219 C 85.996094 84.085938 86.019531 84.09375 86.039063 84.105469 C 86.058594 84.105469 86.078125 84.113281 86.097656 84.125 C 86.1875 84.144531 86.289063 84.15625 86.378906 84.15625 C 86.46875 84.15625 86.566406 84.144531 86.65625 84.125 C 86.679688 84.113281 86.699219 84.105469 86.71875 84.105469 C 86.738281 84.09375 86.757813 84.085938 86.789063 84.074219 C 86.816406 84.066406 86.847656 84.066406 86.878906 84.046875 C 88.890625 83.125 90.726563 81.957031 92.398438 80.59375 C 95.378906 82.785156 98.996094 83.996094 102.816406 83.996094 C 112.539063 83.996094 120.449219 76.074219 120.449219 66.355469 C 120.449219 60.855469 117.90625 55.925781 113.949219 52.695313 C 114.429688 52.195313 114.898438 51.664063 115.359375 51.125 C 121.007813 57.773438 124.429688 66.363281 124.429688 75.746094 C 124.429688 84.605469 121.390625 92.765625 116.289063 99.234375 C 115.648438 99.265625 115.007813 99.285156 114.359375 99.285156 M 78.769531 73.515625 C 80.367188 71.566406 81.316406 69.074219 81.316406 66.355469 C 81.316406 65.574219 81.238281 64.816406 81.089844 64.074219 C 82.339844 64.253906 83.609375 64.375 84.898438 64.433594 C 84.316406 68.753906 82.746094 72.925781 80.339844 76.546875 C 80.246094 76.675781 80.167969 76.804688 80.078125 76.925781 C 79.589844 75.816406 79.148438 74.675781 78.769531 73.515625 M 76.929688 63.234375 C 77.4375 63.375 77.960938 63.496094 78.488281 63.613281 C 78.777344 64.476563 78.929688 65.394531 78.929688 66.355469 C 78.929688 67.84375 78.566406 69.253906 77.917969 70.496094 C 77.359375 68.15625 77.019531 65.726563 76.929688 63.234375 M 98.089844 66.355469 C 98.089844 63.753906 100.210938 61.636719 102.816406 61.636719 C 105.417969 61.636719 107.539063 63.753906 107.539063 66.355469 C 107.539063 68.964844 105.417969 71.085938 102.816406 71.085938 C 100.210938 71.085938 98.089844 68.964844 98.089844 66.355469 M 102.816406 73.476563 C 106.738281 73.476563 109.929688 70.277344 109.929688 66.355469 C 109.929688 63.214844 107.878906 60.546875 105.039063 59.605469 C 105.710938 59.226563 106.378906 58.824219 107.019531 58.414063 C 109.859375 59.925781 111.800781 62.925781 111.800781 66.355469 C 111.800781 71.316406 107.769531 75.34375 102.816406 75.34375 C 97.859375 75.34375 93.828125 71.316406 93.828125 66.355469 C 93.828125 65.414063 93.976563 64.503906 94.246094 63.65625 C 95.007813 63.496094 95.746094 63.316406 96.488281 63.113281 C 95.988281 64.085938 95.699219 65.183594 95.699219 66.355469 C 95.699219 70.277344 98.890625 73.476563 102.816406 73.476563 M 89.527344 77.957031 C 89.460938 78.066406 89.378906 78.183594 89.300781 78.304688 C 88.96875 78.753906 88.628906 79.183594 88.277344 79.59375 C 88.210938 79.675781 88.140625 79.746094 88.066406 79.816406 C 87.777344 80.144531 87.46875 80.464844 87.148438 80.753906 C 87.027344 80.875 86.898438 80.984375 86.777344 81.09375 C 86.648438 81.214844 86.507813 81.316406 86.378906 81.425781 C 86.246094 81.316406 86.109375 81.214844 85.976563 81.09375 C 85.859375 80.984375 85.726563 80.875 85.609375 80.753906 C 85.289063 80.464844 84.976563 80.144531 84.679688 79.816406 C 84.617188 79.734375 84.550781 79.675781 84.488281 79.59375 C 84.128906 79.183594 83.789063 78.753906 83.460938 78.296875 C 83.378906 78.183594 83.300781 78.066406 83.226563 77.957031 C 83.46875 77.664063 83.710938 77.375 83.9375 77.074219 C 84.179688 76.777344 84.398438 76.457031 84.628906 76.113281 C 85.339844 75.046875 85.917969 73.90625 86.378906 72.714844 C 86.839844 73.90625 87.417969 75.054688 88.128906 76.125 C 88.367188 76.484375 88.597656 76.796875 88.816406 77.074219 C 89.050781 77.375 89.289063 77.664063 89.527344 77.957031 M 87.847656 64.433594 C 89.140625 64.394531 90.40625 64.285156 91.65625 64.105469 C 91.519531 64.835938 91.4375 65.585938 91.4375 66.355469 C 91.4375 72.636719 96.539063 77.734375 102.816406 77.734375 C 109.089844 77.734375 114.1875 72.636719 114.1875 66.355469 C 114.1875 62.433594 112.1875 58.964844 109.167969 56.914063 C 110.238281 56.125 111.257813 55.273438 112.226563 54.375 C 115.777344 57.175781 118.058594 61.503906 118.058594 66.355469 C 118.058594 74.765625 111.21875 81.59375 102.816406 81.59375 C 99.488281 81.59375 96.347656 80.527344 93.757813 78.59375 C 93.71875 78.433594 93.65625 78.277344 93.550781 78.136719 C 93.1875 77.664063 92.816406 77.144531 92.40625 76.546875 C 89.996094 72.925781 88.4375 68.753906 87.847656 64.433594 M 77.328125 56.125 C 78.808594 56.445313 80.308594 56.695313 81.816406 56.855469 C 82.839844 56.976563 83.867188 57.046875 84.90625 57.085938 C 85.429688 57.105469 85.949219 57.113281 86.46875 57.113281 C 86.929688 57.113281 87.378906 57.105469 87.839844 57.09375 C 88.867188 57.054688 89.90625 56.984375 90.929688 56.875 C 96.640625 56.285156 102.179688 54.546875 107.1875 51.765625 C 107.378906 51.664063 107.566406 51.554688 107.757813 51.445313 C 108.460938 51.046875 109.148438 50.625 109.816406 50.175781 C 112.710938 48.296875 115.347656 46.066406 117.710938 43.566406 C 116.148438 46.414063 114.210938 49.015625 111.976563 51.304688 C 111.398438 51.894531 110.808594 52.476563 110.1875 53.015625 C 109.117188 53.976563 107.976563 54.863281 106.800781 55.695313 C 105.898438 56.316406 104.96875 56.90625 104.007813 57.445313 C 101.417969 58.914063 98.628906 60.066406 95.71875 60.855469 C 94.667969 61.136719 93.597656 61.375 92.507813 61.554688 C 91.109375 61.796875 89.679688 61.957031 88.226563 62.027344 C 87.648438 62.066406 87.058594 62.074219 86.46875 62.074219 C 85.816406 62.074219 85.167969 62.054688 84.527344 62.027344 C 83.078125 61.945313 81.640625 61.785156 80.226563 61.527344 C 79.140625 61.335938 78.058594 61.09375 76.996094 60.796875 C 76.96875 60.785156 76.9375 60.777344 76.90625 60.765625 C 76.960938 59.183594 77.097656 57.636719 77.328125 56.125 M 85.710938 37.714844 C 85.929688 37.695313 86.15625 37.695313 86.378906 37.695313 C 95.667969 37.695313 104.1875 41.054688 110.800781 46.605469 C 109.550781 47.554688 108.246094 48.425781 106.90625 49.214844 C 105.71875 49.914063 104.476563 50.554688 103.21875 51.125 C 100.246094 52.476563 97.109375 53.464844 93.859375 54.054688 C 92.496094 54.304688 91.117188 54.484375 89.71875 54.59375 C 88.648438 54.683594 87.558594 54.726563 86.46875 54.726563 C 85.308594 54.726563 84.15625 54.675781 83.019531 54.574219 C 81.609375 54.464844 80.21875 54.273438 78.847656 54.015625 C 78.488281 53.945313 78.128906 53.875 77.769531 53.796875 C 79.078125 47.765625 81.859375 42.273438 85.710938 37.714844 M 114.359375 24.355469 C 132.148438 24.355469 147.078125 36.824219 150.878906 53.476563 C 143.976563 61.105469 135.769531 67.433594 126.648438 72.175781 C 125.890625 63.445313 122.316406 55.503906 116.867188 49.246094 C 119.738281 45.425781 121.90625 41.035156 123.1875 36.203125 C 123.339844 35.636719 123.050781 35.035156 122.496094 34.804688 C 121.949219 34.566406 121.316406 34.773438 121.007813 35.285156 C 118.71875 39.046875 115.90625 42.324219 112.6875 45.085938 C 105.96875 39.304688 97.339844 35.683594 87.890625 35.335938 C 94.679688 28.554688 104.039063 24.355469 114.359375 24.355469 M 154.039063 53.386719 C 153.847656 52.445313 153.617188 51.523438 153.359375 50.625 C 148.488281 33.675781 132.847656 21.246094 114.359375 21.246094 C 102.066406 21.246094 91.039063 26.734375 83.597656 35.40625 C 82.867188 36.246094 82.179688 37.105469 81.527344 38.003906 C 78.316406 42.425781 75.96875 47.503906 74.757813 53.015625 C 74.578125 53.785156 74.429688 54.566406 74.308594 55.34375 C 74.066406 56.796875 73.917969 58.265625 73.839844 59.765625 C 73.808594 60.445313 73.789063 61.125 73.789063 61.816406 C 73.789063 62.433594 73.800781 63.066406 73.828125 63.675781 C 73.898438 65.207031 74.058594 66.726563 74.300781 68.207031 C 74.46875 69.285156 74.679688 70.355469 74.9375 71.414063 C 75.097656 72.09375 75.277344 72.765625 75.488281 73.425781 C 75.71875 74.226563 75.988281 75.015625 76.277344 75.796875 C 76.726563 77.027344 77.238281 78.226563 77.808594 79.394531 C 78.148438 80.125 78.527344 80.84375 78.917969 81.546875 C 85.738281 93.746094 98.667969 102.074219 113.527344 102.375 C 113.808594 102.386719 114.078125 102.386719 114.359375 102.386719 C 115.199219 102.386719 116.019531 102.355469 116.847656 102.304688 C 118.328125 102.214844 119.777344 102.054688 121.210938 101.804688 C 122.089844 101.65625 122.960938 101.476563 123.816406 101.265625 C 141.640625 96.996094 154.929688 80.925781 154.929688 61.816406 C 154.929688 58.925781 154.628906 56.105469 154.039063 53.386719 "/>
<path style=" stroke:none;fill-rule:nonzero;fill:rgb(0%,0%,0%);fill-opacity:1;" d="M 68.199219 78.691406 C 62.347656 78.691406 57.589844 73.929688 57.589844 68.082031 C 57.589844 64.769531 59.109375 61.808594 61.488281 59.871094 C 62.011719 60.351563 62.558594 60.808594 63.128906 61.25 C 63.128906 61.25 63.140625 61.25 63.140625 61.261719 C 61.050781 62.808594 59.691406 65.289063 59.691406 68.082031 C 59.691406 72.761719 63.488281 76.570313 68.171875 76.589844 C 68.402344 77.289063 68.640625 77.980469 68.902344 78.667969 C 68.671875 78.679688 68.429688 78.691406 68.199219 78.691406 M 78.25 93.898438 C 80.699219 96.601563 83.441406 99 86.378906 101.050781 C 84.332031 101.550781 82.199219 101.808594 80 101.808594 C 66.160156 101.808594 54.621094 91.449219 53.171875 77.699219 C 53.070313 76.75 53.011719 75.78125 53.011719 74.820313 C 53.011719 73.988281 53.050781 73.160156 53.128906 72.332031 C 53.171875 71.898438 53.21875 71.46875 53.28125 71.050781 C 53.691406 68.089844 54.589844 65.289063 55.878906 62.730469 C 56.808594 60.890625 57.949219 59.160156 59.261719 57.589844 C 59.429688 57.789063 59.597656 57.988281 59.78125 58.179688 C 56.980469 60.570313 55.199219 64.121094 55.199219 68.082031 C 55.199219 75.25 61.03125 81.082031 68.199219 81.082031 C 68.75 81.082031 69.300781 81.039063 69.839844 80.960938 C 71.902344 85.660156 74.730469 90.03125 78.25 93.898438 M 99.902344 107.601563 C 98.929688 109.789063 97.859375 111.929688 96.699219 114.019531 C 96.140625 115.039063 95.550781 116.039063 94.949219 117.03125 C 90.871094 123.667969 85.832031 129.75 79.910156 135.050781 C 73.980469 129.730469 68.929688 123.640625 64.847656 116.980469 C 64.238281 115.988281 63.660156 114.980469 63.097656 113.960938 C 58.769531 106.160156 55.738281 97.667969 54.171875 88.832031 C 55.75 91.71875 57.800781 94.359375 60.289063 96.609375 C 65.699219 101.5 72.699219 104.199219 80 104.199219 C 83.152344 104.199219 86.191406 103.699219 89.039063 102.78125 C 92.441406 104.832031 96.089844 106.449219 99.902344 107.601563 M 107.460938 109.230469 L 107.460938 109.589844 C 105.050781 110.832031 102.570313 111.917969 100.039063 112.839844 C 100.820313 111.332031 101.550781 109.789063 102.230469 108.238281 C 103.949219 108.667969 105.691406 109 107.460938 109.230469 M 100.671875 125.28125 C 100.578125 124.949219 100.5 124.609375 100.398438 124.28125 C 99.640625 121.789063 98.75 119.351563 97.761719 116.949219 C 97.941406 116.648438 98.121094 116.371094 98.289063 116.070313 C 98.660156 115.949219 99.03125 115.820313 99.410156 115.699219 C 99.53125 115.660156 99.652344 115.621094 99.78125 115.582031 C 100.449219 115.351563 101.121094 115.109375 101.789063 114.859375 C 101.800781 114.851563 101.800781 114.851563 101.808594 114.851563 C 103.71875 114.128906 105.609375 113.308594 107.460938 112.378906 L 107.460938 122.558594 C 105.261719 123.589844 102.988281 124.5 100.671875 125.28125 M 107.460938 137.738281 C 106.171875 138.359375 104.859375 138.929688 103.53125 139.460938 C 103.070313 135.460938 102.328125 131.480469 101.320313 127.601563 C 103.410156 126.910156 105.449219 126.121094 107.460938 125.21875 Z M 35.582031 96.878906 C 35.511719 96.808594 35.441406 96.738281 35.371094 96.667969 C 34.769531 96.03125 34.191406 95.378906 33.621094 94.730469 C 33.488281 94.582031 33.359375 94.441406 33.230469 94.289063 C 32.730469 93.699219 32.238281 93.101563 31.761719 92.488281 C 31.582031 92.269531 31.402344 92.050781 31.230469 91.832031 C 30.800781 91.269531 30.390625 90.699219 29.980469 90.140625 C 29.769531 89.851563 29.558594 89.570313 29.359375 89.289063 C 28.980469 88.75 28.628906 88.191406 28.269531 87.628906 C 28.058594 87.308594 27.839844 87 27.628906 86.667969 C 27.261719 86.070313 26.902344 85.449219 26.550781 84.832031 C 26.378906 84.539063 26.210938 84.269531 26.050781 83.980469 C 25.539063 83.058594 25.058594 82.140625 24.589844 81.191406 C 24.570313 81.148438 24.550781 81.109375 24.53125 81.058594 C 24.109375 80.199219 23.71875 79.339844 23.347656 78.46875 C 23.28125 78.320313 23.21875 78.167969 23.152344 78.019531 C 22.789063 77.148438 22.449219 76.289063 22.140625 75.429688 C 22.082031 75.269531 22.019531 75.109375 21.960938 74.949219 C 21.652344 74.082031 21.347656 73.210938 21.089844 72.351563 C 21.058594 72.238281 21.03125 72.128906 20.988281 72.03125 C 20.441406 70.199219 19.988281 68.398438 19.621094 66.621094 C 19.597656 66.519531 19.582031 66.417969 19.558594 66.320313 C 19.390625 65.460938 19.238281 64.609375 19.097656 63.761719 C 19.089844 63.648438 19.070313 63.539063 19.050781 63.429688 C 18.921875 62.582031 18.808594 61.730469 18.71875 60.890625 C 18.710938 60.839844 18.710938 60.789063 18.699219 60.730469 C 18.609375 59.871094 18.53125 59.011719 18.46875 58.171875 L 18.46875 58.128906 C 18.421875 57.308594 18.378906 56.5 18.359375 55.699219 C 18.347656 55.601563 18.347656 55.488281 18.347656 55.378906 C 18.332031 54.621094 18.320313 53.871094 18.332031 53.128906 L 18.332031 52.761719 C 18.339844 52.03125 18.359375 51.300781 18.402344 50.601563 C 18.402344 50.5 18.410156 50.410156 18.410156 50.320313 C 18.449219 49.671875 18.488281 49.039063 18.539063 48.410156 C 18.550781 48.289063 18.550781 48.179688 18.558594 48.058594 C 18.621094 47.441406 18.679688 46.828125 18.738281 46.230469 C 18.769531 46.039063 18.789063 45.851563 18.808594 45.660156 C 18.871094 45.109375 18.941406 44.578125 19.019531 44.050781 C 19.050781 43.820313 19.089844 43.589844 19.121094 43.371094 C 19.179688 42.988281 19.238281 42.609375 19.300781 42.238281 C 19.371094 41.878906 19.429688 41.519531 19.5 41.160156 C 19.539063 40.929688 19.582031 40.710938 19.628906 40.488281 C 19.671875 40.289063 19.699219 40.089844 19.738281 39.898438 C 24.082031 51.199219 31.652344 61.238281 41.390625 68.53125 C 44.308594 70.71875 47.371094 72.640625 50.550781 74.28125 C 50.539063 74.417969 50.539063 74.550781 50.539063 74.691406 C 50.539063 88.082031 53.769531 101.109375 59.738281 112.769531 C 50.699219 109.429688 42.347656 103.96875 35.582031 96.878906 M 59.652344 124.011719 C 59.519531 124.417969 59.421875 124.839844 59.289063 125.261719 C 33.410156 116.570313 14.699219 92.109375 14.699219 63.332031 C 14.699219 58.789063 15.152344 54.328125 16.058594 49.96875 C 16.050781 50.078125 16.050781 50.179688 16.050781 50.28125 C 16 51.210938 15.96875 52.121094 15.960938 53.039063 C 15.941406 55.238281 16.050781 57.398438 16.230469 59.539063 C 16.910156 67.539063 18.980469 75.160156 22.449219 82.25 C 22.878906 83.140625 23.347656 84.011719 23.820313 84.878906 C 26.847656 90.410156 30.671875 95.46875 35.160156 99.929688 L 35.402344 100.167969 C 35.410156 100.179688 35.421875 100.191406 35.421875 100.191406 C 38.597656 103.308594 42.097656 106.128906 45.890625 108.589844 C 46.140625 108.761719 46.402344 108.910156 46.660156 109.070313 C 47.058594 109.332031 47.449219 109.582031 47.847656 109.820313 C 47.890625 109.839844 47.929688 109.859375 47.96875 109.890625 C 51.878906 112.238281 55.988281 114.140625 60.210938 115.570313 C 60.320313 115.609375 60.441406 115.648438 60.558594 115.679688 C 60.871094 115.789063 61.179688 115.898438 61.5 116 C 61.71875 116.378906 61.949219 116.75 62.171875 117.121094 C 61.238281 119.378906 60.390625 121.667969 59.652344 124.011719 M 56.320313 139.398438 C 34.699219 130.738281 18.859375 110.609375 16.390625 86.582031 C 19.730469 95.730469 25.039063 104.109375 32.128906 111.199219 C 39.699219 118.769531 48.75 124.308594 58.621094 127.582031 C 57.589844 131.449219 56.820313 135.410156 56.320313 139.398438 M 61.929688 124.730469 C 62.46875 123.019531 63.089844 121.351563 63.738281 119.679688 C 67.949219 126.269531 73.109375 132.300781 79.121094 137.550781 C 79.347656 137.738281 79.628906 137.839844 79.910156 137.839844 C 80.191406 137.839844 80.46875 137.738281 80.699219 137.550781 C 86.78125 132.25 91.96875 126.160156 96.199219 119.511719 C 96.902344 121.308594 97.550781 123.128906 98.109375 124.980469 C 99.628906 129.949219 100.679688 135.101563 101.238281 140.308594 C 100.179688 140.691406 99.121094 141.039063 98.03125 141.359375 C 97.832031 141.417969 97.628906 141.46875 97.429688 141.53125 C 96.75 141.71875 96.058594 141.898438 95.359375 142.082031 C 95.050781 142.148438 94.738281 142.21875 94.429688 142.300781 C 93.832031 142.429688 93.230469 142.570313 92.621094 142.691406 L 91.539063 142.898438 C 90.96875 143 90.390625 143.101563 89.820313 143.179688 C 89.429688 143.238281 89.050781 143.300781 88.671875 143.359375 C 88.089844 143.429688 87.511719 143.5 86.929688 143.558594 C 86.550781 143.601563 86.171875 143.648438 85.789063 143.679688 C 85.171875 143.738281 84.550781 143.78125 83.921875 143.820313 C 83.582031 143.839844 83.238281 143.871094 82.902344 143.878906 C 82 143.917969 81.097656 143.941406 80.199219 143.949219 L 80 143.949219 C 79.921875 143.949219 79.839844 143.941406 79.75 143.941406 C 78.859375 143.941406 77.980469 143.917969 77.097656 143.878906 C 76.738281 143.859375 76.378906 143.832031 76.019531 143.808594 C 75.410156 143.78125 74.808594 143.738281 74.199219 143.679688 C 73.800781 143.648438 73.402344 143.601563 73 143.550781 C 72.441406 143.488281 71.878906 143.429688 71.332031 143.359375 C 70.921875 143.300781 70.511719 143.238281 70.097656 143.167969 C 69.558594 143.089844 69.011719 143 68.46875 142.898438 C 68.082031 142.832031 67.679688 142.75 67.289063 142.667969 C 66.71875 142.550781 66.160156 142.429688 65.589844 142.300781 C 65.238281 142.21875 64.902344 142.140625 64.550781 142.050781 C 63.910156 141.890625 63.28125 141.730469 62.660156 141.550781 C 62.390625 141.480469 62.128906 141.398438 61.871094 141.332031 C 61.082031 141.089844 60.289063 140.839844 59.511719 140.582031 C 59.429688 140.550781 59.347656 140.53125 59.28125 140.5 C 59.050781 140.417969 58.820313 140.332031 58.597656 140.25 C 59.230469 134.96875 60.347656 129.761719 61.929688 124.730469 M 107.460938 151.839844 C 98.699219 155.199219 89.46875 156.898438 80 156.898438 C 37.597656 156.898438 3.109375 122.398438 3.109375 80 C 3.109375 37.601563 37.597656 3.109375 80 3.109375 C 94.03125 3.109375 107.488281 6.828125 119.359375 13.929688 C 117.519531 13.71875 115.660156 13.609375 113.800781 13.609375 C 92 13.609375 73.550781 28.210938 67.710938 48.140625 C 65.359375 49.21875 63.160156 50.609375 61.160156 52.289063 C 58.988281 50.390625 57.097656 48.148438 55.550781 45.589844 C 55.238281 45.089844 54.609375 44.878906 54.058594 45.109375 C 53.519531 45.351563 53.21875 45.949219 53.371094 46.519531 C 54.261719 49.890625 55.75 52.96875 57.730469 55.671875 C 54.070313 59.921875 51.691406 65.140625 50.910156 70.71875 C 50.859375 71.058594 50.820313 71.398438 50.78125 71.75 C 36.660156 64.269531 25.671875 51.398438 20.671875 35.28125 C 20.652344 35.230469 20.621094 35.179688 20.597656 35.128906 L 20.570313 35.070313 C 20.378906 34.71875 20.039063 34.480469 19.652344 34.441406 C 19.597656 34.441406 19.550781 34.449219 19.5 34.449219 L 19.480469 34.449219 C 19.339844 34.460938 19.210938 34.480469 19.089844 34.53125 C 19.082031 34.539063 19.058594 34.539063 19.050781 34.550781 C 18.832031 34.648438 18.628906 34.808594 18.5 35.03125 C 18.488281 35.050781 18.480469 35.078125 18.46875 35.101563 C 18.460938 35.121094 18.449219 35.128906 18.441406 35.140625 C 14.371094 44.019531 12.308594 53.5 12.308594 63.332031 C 12.308594 68.050781 12.800781 72.691406 13.730469 77.210938 L 13.730469 77.238281 C 13.691406 78.160156 13.671875 79.082031 13.671875 80 C 13.671875 97.71875 20.570313 114.378906 33.097656 126.910156 C 41.371094 135.191406 51.460938 140.988281 62.449219 143.988281 C 62.488281 144 62.53125 144.011719 62.558594 144.019531 C 63.421875 144.25 64.289063 144.460938 65.160156 144.660156 C 65.308594 144.699219 65.46875 144.730469 65.621094 144.769531 C 66.402344 144.941406 67.171875 145.101563 67.960938 145.238281 C 68.230469 145.289063 68.511719 145.339844 68.789063 145.378906 C 69.46875 145.5 70.160156 145.609375 70.847656 145.699219 C 71.261719 145.761719 71.671875 145.808594 72.082031 145.859375 C 72.660156 145.917969 73.238281 146 73.832031 146.050781 C 74.402344 146.101563 74.96875 146.140625 75.550781 146.179688 C 75.988281 146.199219 76.429688 146.238281 76.878906 146.261719 C 77.902344 146.308594 78.929688 146.339844 79.949219 146.339844 L 80 146.339844 C 81.039063 146.339844 82.082031 146.308594 83.121094 146.261719 C 83.539063 146.238281 83.949219 146.210938 84.371094 146.179688 C 84.96875 146.140625 85.570313 146.109375 86.171875 146.050781 C 86.71875 146 87.269531 145.929688 87.820313 145.871094 C 88.261719 145.820313 88.699219 145.769531 89.128906 145.710938 C 89.789063 145.621094 90.441406 145.511719 91.089844 145.398438 C 91.402344 145.351563 91.710938 145.300781 92.011719 145.238281 C 92.761719 145.109375 93.5 144.960938 94.238281 144.800781 C 94.429688 144.761719 94.609375 144.71875 94.789063 144.679688 C 95.628906 144.488281 96.460938 144.28125 97.300781 144.058594 C 97.339844 144.039063 97.390625 144.03125 97.441406 144.019531 C 100.878906 143.089844 104.230469 141.878906 107.460938 140.410156 Z M 66.140625 55.800781 C 65.890625 55.671875 65.640625 55.53125 65.402344 55.378906 C 64.609375 54.910156 63.832031 54.398438 63.089844 53.851563 C 64.289063 52.878906 65.570313 52.019531 66.910156 51.269531 C 66.582031 52.75 66.320313 54.269531 66.140625 55.800781 M 65.480469 60.019531 C 64.832031 59.558594 64.199219 59.058594 63.589844 58.53125 C 63.460938 58.429688 63.332031 58.320313 63.199219 58.199219 C 62.699219 57.75 62.210938 57.28125 61.769531 56.789063 C 61.039063 56.050781 60.378906 55.261719 59.78125 54.429688 C 59.640625 54.25 59.511719 54.070313 59.378906 53.890625 C 59.550781 54.039063 59.71875 54.179688 59.890625 54.320313 C 60.738281 55.058594 61.628906 55.738281 62.558594 56.359375 C 63.230469 56.828125 63.910156 57.269531 64.609375 57.671875 C 64.769531 57.761719 64.929688 57.851563 65.089844 57.941406 C 65.347656 58.089844 65.621094 58.230469 65.890625 58.359375 C 65.847656 58.980469 65.820313 59.609375 65.800781 60.238281 C 65.691406 60.167969 65.589844 60.089844 65.480469 60.019531 M 67.441406 74.148438 C 64.429688 73.78125 62.082031 71.191406 62.082031 68.082031 C 62.082031 65.78125 63.371094 63.78125 65.261719 62.738281 C 65.441406 62.859375 65.621094 62.96875 65.800781 63.082031 C 65.800781 63.121094 65.800781 63.160156 65.808594 63.199219 C 64.921875 63.628906 64.171875 64.289063 63.628906 65.121094 C 63.070313 65.96875 62.75 66.980469 62.75 68.082031 C 62.75 70.761719 64.710938 73 67.261719 73.441406 C 67.308594 73.679688 67.371094 73.910156 67.441406 74.148438 M 66.652344 70.710938 C 65.75 70.179688 65.140625 69.199219 65.140625 68.082031 C 65.140625 67.269531 65.460938 66.53125 65.980469 65.980469 C 66.121094 67.570313 66.339844 69.148438 66.652344 70.710938 M 68.929688 59.710938 C 68.96875 58.878906 69.019531 58.050781 69.097656 57.230469 C 69.359375 54.609375 69.839844 52.050781 70.539063 49.578125 C 70.800781 48.621094 71.097656 47.660156 71.429688 46.730469 C 77.589844 29.261719 94.261719 16.71875 113.800781 16.71875 C 118.039063 16.71875 122.25 17.308594 126.289063 18.480469 C 127.019531 18.691406 127.789063 18.351563 128.121094 17.679688 C 128.449219 17 128.261719 16.191406 127.648438 15.738281 C 113.789063 5.449219 97.308594 0 80 0 C 58.628906 0 38.539063 8.320313 23.429688 23.429688 C 8.320313 38.539063 0 58.628906 0 80 C 0 101.371094 8.320313 121.460938 23.429688 136.570313 C 38.539063 151.679688 58.628906 160 80 160 C 90.21875 160 100.171875 158.101563 109.589844 154.351563 C 110.179688 154.109375 110.570313 153.539063 110.570313 152.910156 L 110.570313 107.839844 C 110.570313 107.050781 109.96875 106.378906 109.179688 106.300781 C 107.21875 106.101563 105.308594 105.78125 103.441406 105.339844 C 102.648438 105.160156 101.878906 104.949219 101.109375 104.730469 C 98.152344 103.871094 95.332031 102.71875 92.679688 101.308594 C 91.808594 100.851563 90.949219 100.359375 90.121094 99.839844 C 82.558594 95.167969 76.539063 88.332031 72.871094 80.199219 C 72.539063 79.46875 72.230469 78.738281 71.941406 77.988281 C 71.691406 77.351563 71.449219 76.691406 71.230469 76.03125 C 70.980469 75.28125 70.738281 74.511719 70.53125 73.738281 C 70.46875 73.519531 70.410156 73.300781 70.359375 73.082031 C 70.140625 72.289063 69.960938 71.488281 69.800781 70.679688 C 69.429688 68.871094 69.171875 67.019531 69.019531 65.140625 C 68.949219 64.121094 68.902344 63.101563 68.890625 62.058594 L 68.890625 61.628906 C 68.890625 60.988281 68.902344 60.351563 68.929688 59.710938 "/>
<path style=" stroke:none;fill-rule:nonzero;fill:rgb(0%,0%,0%);fill-opacity:1;" d="M 120.128906 145.601563 L 120.128906 132.832031 C 122.5 131.03125 124.761719 129.050781 126.910156 126.910156 C 134.730469 119.089844 140.359375 109.652344 143.480469 99.359375 C 143.828125 99.089844 144.171875 98.808594 144.511719 98.53125 C 149.710938 94.210938 153.878906 88.902344 156.839844 82.941406 C 155.851563 108.582031 142.039063 132.171875 120.128906 145.601563 M 120.128906 117.859375 C 122.851563 115.859375 125.441406 113.628906 127.871094 111.199219 C 129.609375 109.460938 131.25 107.640625 132.78125 105.738281 C 135.328125 104.640625 137.789063 103.320313 140.121094 101.78125 C 136.109375 112.839844 129.121094 122.488281 120.128906 129.75 Z M 120.128906 109.230469 C 122.828125 108.878906 125.480469 108.289063 128.050781 107.488281 C 125.628906 110.140625 122.96875 112.589844 120.128906 114.800781 Z M 159.839844 74.949219 C 159.789063 74.199219 159.210938 73.589844 158.46875 73.511719 C 157.71875 73.421875 157.019531 73.878906 156.800781 74.601563 C 154.5 82.21875 150.320313 88.902344 144.828125 94.140625 C 143.820313 95.109375 142.769531 96.019531 141.679688 96.871094 C 140.128906 98.109375 138.488281 99.238281 136.769531 100.25 C 135.269531 101.152344 133.699219 101.960938 132.078125 102.671875 C 127.828125 104.570313 123.230469 105.808594 118.421875 106.300781 C 117.628906 106.378906 117.03125 107.050781 117.03125 107.839844 L 117.03125 148.320313 C 117.03125 148.871094 117.320313 149.378906 117.800781 149.660156 C 118.039063 149.800781 118.308594 149.871094 118.578125 149.871094 C 118.839844 149.871094 119.109375 149.808594 119.339844 149.671875 C 131.46875 142.808594 141.640625 132.859375 148.769531 120.890625 C 156.121094 108.570313 160 94.429688 160 80 C 160 78.390625 159.949219 76.691406 159.839844 74.949219 "/>
</g>
</svg>
