<svg xmlns="http://www.w3.org/2000/svg" width="160pt" height="160pt" viewBox="0 0 160 160"><path d="M124.54 97.887a116.506 116.506 0 002.058-17.922c.148-1.39.218-2.79.218-4.219 0-.34-.015-.68-.015-1.02 4.539-2.32 8.918-5 13.066-8.113a88.904 88.904 0 0011.54-10.316c.273 1.797.41 3.637.41 5.52 0 17.128-11.547 31.609-27.278 36.07m-5.05 1.047a39.602 39.602 0 003.448-5.907c-.289 1.836-.62 3.668-1 5.489-.808.168-1.628.308-2.449.418m-5.129.351c-12.968 0-24.41-6.62-31.14-16.66.847.52 1.742 1 2.66 1.422.027.02.058.02.09.027.027.012.05.02.07.031.02 0 .04.008.059.02a1.316 1.316 0 00.558 0 .144.144 0 01.063-.02.366.366 0 01.07-.03c.027-.009.059-.009.09-.028a25.587 25.587 0 005.52-3.453 17.52 17.52 0 0010.417 3.402c9.723 0 17.633-7.922 17.633-17.64 0-5.5-2.543-10.43-6.5-13.66.48-.5.95-1.032 1.41-1.571 5.649 6.648 9.07 15.238 9.07 24.621 0 8.86-3.038 17.02-8.14 23.488a38.56 38.56 0 01-1.93.051m-35.59-25.77a11.246 11.246 0 002.547-7.16c0-.78-.078-1.539-.226-2.28 1.25.179 2.52.3 3.808.359a28.948 28.948 0 01-4.558 12.113c-.094.129-.172.258-.262.379-.488-1.11-.93-2.25-1.308-3.41m-1.84-10.282c.507.141 1.03.262 1.558.38a8.6 8.6 0 01.442 2.741 8.926 8.926 0 01-1.012 4.141 37 37 0 01-.988-7.262m21.16 3.121a4.729 4.729 0 014.726-4.718 4.728 4.728 0 014.723 4.718c0 2.61-2.121 4.73-4.723 4.73a4.734 4.734 0 01-4.726-4.73m4.726 7.122c3.922 0 7.114-3.2 7.114-7.122 0-3.14-2.051-5.808-4.89-6.75.67-.378 1.339-.78 1.98-1.19 2.84 1.51 4.78 4.51 4.78 7.94 0 4.961-4.03 8.989-8.984 8.989-4.957 0-8.988-4.028-8.988-8.989 0-.94.149-1.851.418-2.699.762-.16 1.5-.34 2.242-.543-.5.973-.789 2.07-.789 3.242 0 3.922 3.192 7.122 7.117 7.122m-13.289 4.48c-.066.11-.148.227-.226.348-.332.449-.672.879-1.024 1.289a2.286 2.286 0 01-.21.222c-.29.329-.598.649-.919.938-.12.121-.25.23-.37.34-.13.12-.27.222-.4.332-.132-.11-.269-.211-.401-.332-.118-.11-.25-.219-.368-.34-.32-.29-.632-.61-.93-.938-.062-.082-.128-.14-.19-.222-.36-.41-.7-.84-1.028-1.297-.082-.113-.16-.23-.234-.34.242-.293.484-.582.71-.883.243-.297.461-.617.692-.96a17.48 17.48 0 001.75-3.4 17.64 17.64 0 001.75 3.411c.238.36.469.672.687.95.235.3.473.59.711.882m-1.68-13.523a33.9 33.9 0 003.81-.329c-.137.73-.22 1.48-.22 2.25 0 6.282 5.102 11.38 11.38 11.38 6.273 0 11.37-5.098 11.37-11.38 0-3.921-2-7.39-5.019-9.44 1.07-.79 2.09-1.642 3.059-2.54 3.55 2.8 5.832 7.129 5.832 11.98 0 8.41-6.84 15.239-15.243 15.239a15.067 15.067 0 01-9.058-3 1.237 1.237 0 00-.207-.457 36.477 36.477 0 01-1.145-1.59 29.001 29.001 0 01-4.558-12.113m-10.52-8.309c1.48.32 2.98.57 4.488.73a37.72 37.72 0 003.09.23c.524.02 1.043.028 1.563.028.46 0 .91-.008 1.37-.02a44.952 44.952 0 003.09-.218 42.496 42.496 0 0016.258-5.11c.192-.1.38-.21.57-.32a31.18 31.18 0 002.06-1.27 43.39 43.39 0 007.894-6.609 35.607 35.607 0 01-5.734 7.739 30.777 30.777 0 01-1.79 1.71 37.092 37.092 0 01-3.386 2.68 36.005 36.005 0 01-2.793 1.75 35.825 35.825 0 01-8.29 3.41 33.49 33.49 0 01-3.21.7 35.003 35.003 0 01-4.281.472c-.579.04-1.168.047-1.758.047-.653 0-1.301-.02-1.942-.047a35.009 35.009 0 01-4.3-.5 33.864 33.864 0 01-3.23-.73c-.028-.012-.06-.02-.09-.031.054-1.582.19-3.13.421-4.641m8.383-18.41c.219-.02.445-.02.668-.02 9.289 0 17.808 3.36 24.422 8.91a39.187 39.187 0 01-7.582 4.52 39.743 39.743 0 01-9.36 2.93 40.39 40.39 0 01-4.14.539c-1.07.09-2.16.133-3.25.133-1.16 0-2.313-.051-3.45-.153a38.801 38.801 0 01-5.25-.777 37.119 37.119 0 017.942-16.082m28.648-13.36c17.79 0 32.72 12.47 36.52 29.122a86.447 86.447 0 01-24.23 18.699c-.758-8.73-4.333-16.672-9.782-22.93a37.753 37.753 0 006.32-13.043 1.183 1.183 0 00-.69-1.398 1.184 1.184 0 00-1.49.48 40.883 40.883 0 01-8.32 9.8c-6.718-5.78-15.347-9.401-24.796-9.75 6.789-6.78 16.148-10.98 26.468-10.98m39.68 29.032a36.084 36.084 0 00-.68-2.762c-4.87-16.95-20.511-29.379-39-29.379-12.293 0-23.32 5.488-30.761 14.16-.73.84-1.418 1.7-2.07 2.598-3.212 4.422-5.56 9.5-6.77 15.012-.18.77-.328 1.55-.45 2.328a39.241 39.241 0 00-.468 4.422 44.846 44.846 0 00-.012 3.91c.07 1.531.23 3.05.473 4.531.168 1.078.379 2.148.636 3.207.16.68.34 1.352.551 2.012.23.8.5 1.59.79 2.37.449 1.231.96 2.43 1.53 3.599.34.73.72 1.449 1.11 2.152 6.82 12.2 19.75 20.527 34.61 20.828.28.012.55.012.831.012.84 0 1.66-.032 2.489-.082a39.126 39.126 0 006.968-1.04c17.825-4.269 31.114-20.34 31.114-39.449 0-2.89-.301-5.71-.89-8.43"/><path d="M68.2 78.691c-5.852 0-10.61-4.761-10.61-10.609 0-3.312 1.52-6.273 3.898-8.21a25.501 25.501 0 001.653 1.39 8.475 8.475 0 00-3.45 6.82c0 4.68 3.797 8.488 8.48 8.508.231.7.47 1.39.731 2.078-.23.012-.472.023-.703.023M78.25 93.898a48.26 48.26 0 008.129 7.153c-2.047.5-4.18.758-6.379.758-13.84 0-25.379-10.36-26.828-24.11a27.055 27.055 0 01-.16-2.879 26.458 26.458 0 01.27-3.77 26.588 26.588 0 012.597-8.32c.93-1.84 2.07-3.57 3.383-5.14.168.2.336.398.52.59-2.802 2.39-4.583 5.941-4.583 9.902 0 7.168 5.832 13 13 13 .551 0 1.102-.043 1.64-.121a47.682 47.682 0 008.411 12.937m21.652 13.704a81.175 81.175 0 01-3.203 6.418 79.482 79.482 0 01-1.75 3.011 81.261 81.261 0 01-15.039 18.02 81.435 81.435 0 01-15.062-18.07c-.61-.993-1.188-2-1.75-3.02a80.936 80.936 0 01-8.926-25.129 29.635 29.635 0 006.117 7.777A29.345 29.345 0 0080 104.2c3.152 0 6.191-.5 9.04-1.418a47.86 47.86 0 0010.862 4.82m7.559 1.63v.359a64.05 64.05 0 01-7.422 3.25 78.616 78.616 0 002.191-4.602c1.72.43 3.461.762 5.23.992m-6.788 16.051c-.094-.332-.172-.672-.274-1a81.887 81.887 0 00-2.636-7.332c.18-.3.36-.578.527-.879.371-.12.742-.25 1.121-.37.121-.04.242-.079.371-.118.668-.23 1.34-.473 2.008-.723.012-.007.012-.007.02-.007 1.91-.723 3.8-1.543 5.652-2.473v10.18a64.75 64.75 0 01-6.79 2.722m6.79 12.457a62.658 62.658 0 01-3.93 1.723c-.46-4-1.203-7.98-2.21-11.86a64.341 64.341 0 006.14-2.382zm-71.879-40.86l-.21-.21a73.191 73.191 0 01-1.75-1.938c-.134-.148-.263-.289-.392-.44a54.59 54.59 0 01-1.468-1.802c-.18-.218-.36-.437-.532-.656-.43-.562-.84-1.133-1.25-1.691-.21-.29-.421-.57-.62-.852-.38-.539-.731-1.098-1.09-1.66-.211-.32-.43-.629-.641-.961a64.678 64.678 0 01-1.078-1.836c-.172-.293-.34-.562-.5-.852a65.12 65.12 0 01-1.461-2.789c-.02-.043-.04-.082-.059-.132a52.944 52.944 0 01-1.183-2.59c-.067-.149-.13-.301-.196-.45a55.216 55.216 0 01-1.011-2.59l-.18-.48a54.804 54.804 0 01-.871-2.597c-.031-.114-.059-.223-.102-.32-.547-1.833-1-3.634-1.367-5.41-.023-.102-.039-.204-.062-.302-.168-.86-.32-1.71-.461-2.558a3.087 3.087 0 00-.047-.332c-.13-.848-.242-1.7-.332-2.54-.008-.05-.008-.1-.02-.16a83.968 83.968 0 01-.23-2.558v-.043c-.047-.82-.09-1.629-.11-2.43-.011-.097-.011-.21-.011-.32a61.97 61.97 0 01-.016-2.25v-.367c.008-.73.027-1.461.07-2.16 0-.102.008-.192.008-.282.04-.648.078-1.28.13-1.91.01-.12.01-.23.019-.351.062-.618.12-1.23.18-1.829.03-.19.05-.378.07-.57.062-.55.132-1.082.21-1.61.032-.23.07-.46.102-.679.059-.383.117-.762.18-1.133.07-.36.129-.718.199-1.078.04-.23.082-.45.129-.672.043-.199.07-.398.11-.59C24.081 51.2 31.651 61.238 41.39 68.531a64.844 64.844 0 009.16 5.75c-.012.137-.012.27-.012.41a83.546 83.546 0 009.2 38.079c-9.04-3.34-17.391-8.801-24.157-15.891m24.07 27.133c-.132.406-.23.828-.363 1.25C33.41 116.57 14.7 92.109 14.7 63.332c0-4.543.453-9.004 1.36-13.363-.008.11-.008.21-.008.312a59.61 59.61 0 00-.09 2.758c-.02 2.2.09 4.36.27 6.5.68 8 2.75 15.621 6.218 22.711.43.89.899 1.762 1.371 2.629a65.707 65.707 0 0011.34 15.05l.242.239a67.023 67.023 0 0010.488 8.422c.25.172.512.32.77.48.399.262.79.512 1.188.75.043.02.082.04.12.07a63.14 63.14 0 0012.243 5.68c.11.04.23.078.348.11.312.11.62.218.941.32.219.379.45.75.672 1.121a84.3 84.3 0 00-2.52 6.89m-3.332 15.387c-21.62-8.66-37.46-28.789-39.93-52.816 3.34 9.148 8.65 17.527 15.739 24.617 7.57 7.57 16.621 13.11 26.492 16.383a88.804 88.804 0 00-2.3 11.816m5.609-14.668c.539-1.71 1.16-3.378 1.808-5.05a83.198 83.198 0 0015.383 17.87c.227.188.508.29.79.29.28 0 .558-.102.788-.29a83.028 83.028 0 0015.5-18.038 72.435 72.435 0 011.91 5.468 82.658 82.658 0 013.13 15.329c-1.06.382-2.118.73-3.208 1.05-.199.059-.402.11-.601.172-.68.188-1.371.367-2.07.551-.31.066-.622.137-.93.219-.598.129-1.2.27-1.809.39l-1.082.207c-.57.102-1.148.204-1.719.282-.39.058-.77.12-1.148.18-.582.07-1.16.14-1.742.199-.38.043-.758.09-1.14.12a57.42 57.42 0 01-1.868.141c-.34.02-.684.051-1.02.059a78.28 78.28 0 01-2.703.07H80c-.078 0-.16-.008-.25-.008-.89 0-1.77-.023-2.652-.062-.36-.02-.72-.047-1.078-.07-.61-.028-1.211-.07-1.82-.13a25.521 25.521 0 01-1.2-.128c-.559-.063-1.121-.121-1.668-.192-.41-.058-.82-.12-1.234-.191a40.416 40.416 0 01-1.63-.27 32.618 32.618 0 01-1.179-.23 87.947 87.947 0 01-1.7-.367c-.35-.082-.687-.16-1.038-.25-.64-.16-1.27-.32-1.89-.5-.27-.07-.532-.153-.79-.219-.789-.242-1.582-.492-2.36-.75-.081-.031-.163-.05-.23-.082-.23-.082-.46-.168-.683-.25a85.836 85.836 0 013.332-15.52m45.53 27.11c-8.76 3.36-17.991 5.058-27.46 5.058-42.402 0-76.89-34.5-76.89-76.898C3.11 37.602 37.597 3.11 80 3.11c14.031 0 27.488 3.718 39.36 10.82-1.84-.211-3.7-.32-5.56-.32-21.8 0-40.25 14.6-46.09 34.53a28.911 28.911 0 00-6.55 4.15 28.349 28.349 0 01-5.61-6.7 1.21 1.21 0 00-1.491-.48c-.54.242-.84.84-.688 1.41a27.184 27.184 0 004.36 9.152 29.29 29.29 0 00-6.82 15.047c-.052.34-.09.68-.13 1.031-14.12-7.48-25.11-20.352-30.11-36.469-.019-.05-.05-.101-.073-.152l-.028-.059a1.19 1.19 0 00-.918-.629c-.054 0-.101.008-.152.008h-.02a1.26 1.26 0 00-.39.082c-.008.008-.031.008-.04.02a1.19 1.19 0 00-.55.48c-.012.02-.02.047-.031.07-.008.02-.02.028-.028.04-4.07 8.879-6.132 18.359-6.132 28.191 0 4.719.492 9.36 1.421 13.879v.027A65.393 65.393 0 0013.672 80c0 17.719 6.898 34.379 19.426 46.91 8.273 8.281 18.363 14.078 29.351 17.078l.11.032c.863.23 1.73.44 2.601.64.149.04.309.07.461.11.781.171 1.55.332 2.34.468.27.051.55.102.828.14.68.122 1.371.231 2.059.321.414.063.824.11 1.234.16.578.059 1.156.141 1.75.192.57.05 1.137.09 1.719.129.437.02.879.058 1.328.082 1.023.047 2.05.078 3.07.078H80c1.04 0 2.082-.031 3.121-.078.418-.024.828-.051 1.25-.082.598-.04 1.2-.07 1.8-.13.548-.05 1.099-.12 1.65-.179.44-.05.878-.101 1.308-.16a52.6 52.6 0 001.96-.313c.313-.046.622-.097.923-.16.75-.129 1.488-.277 2.226-.437.192-.04.371-.082.551-.121.84-.192 1.672-.399 2.512-.621.039-.02.09-.028.14-.04 3.438-.93 6.79-2.14 10.02-3.609zM66.14 55.8c-.25-.128-.5-.269-.738-.421-.793-.469-1.57-.98-2.312-1.527 1.2-.973 2.48-1.832 3.82-2.582-.328 1.48-.59 3-.77 4.53m-.66 4.22a25.357 25.357 0 01-1.89-1.489 7.091 7.091 0 01-.39-.332c-.5-.449-.99-.918-1.43-1.41a19.622 19.622 0 01-1.989-2.36c-.14-.179-.27-.359-.402-.538.172.148.34.289.512.43a26.325 26.325 0 002.668 2.038c.671.47 1.351.91 2.05 1.313l.48.27c.259.148.532.288.802.417-.043.621-.07 1.25-.09 1.88-.11-.071-.211-.15-.32-.22m1.96 14.13a6.126 6.126 0 01-5.359-6.067c0-2.3 1.29-4.3 3.18-5.344.18.121.36.23.539.344 0 .04 0 .078.008.117a5.419 5.419 0 00-2.18 1.922 5.344 5.344 0 00-.879 2.961c0 2.68 1.96 4.918 4.512 5.36.047.238.11.468.18.706m-.79-3.437a3.054 3.054 0 01-1.511-2.629c0-.812.32-1.55.84-2.102.14 1.59.359 3.168.671 4.73m2.278-11c.039-.831.09-1.66.168-2.48.261-2.62.742-5.18 1.441-7.652.262-.957.559-1.918.89-2.848 6.16-17.468 22.833-30.011 42.372-30.011 4.238 0 8.449.59 12.488 1.761.73.211 1.5-.128 1.832-.8.328-.68.14-1.489-.473-1.942C113.79 5.45 97.308 0 80 0 58.629 0 38.54 8.32 23.43 23.43S0 58.629 0 80c0 21.371 8.32 41.46 23.43 56.57S58.629 160 80 160c10.219 0 20.172-1.898 29.59-5.648.59-.243.98-.813.98-1.442v-45.07a1.55 1.55 0 00-1.39-1.54 44.41 44.41 0 01-5.739-.96 44.304 44.304 0 01-10.761-4.031c-.871-.457-1.73-.95-2.559-1.47a44.695 44.695 0 01-17.25-19.64c-.332-.73-.64-1.46-.93-2.21a38.672 38.672 0 01-.71-1.958 39.968 39.968 0 01-.872-2.949 33.468 33.468 0 01-.558-2.402 46.107 46.107 0 01-.781-5.54 53.772 53.772 0 01-.13-3.081v-.43c0-.64.012-1.277.04-1.918m51.199 85.891v-12.77a67.21 67.21 0 006.781-5.922c7.82-7.82 13.45-17.258 16.57-27.55.348-.27.692-.551 1.032-.829a47.999 47.999 0 0012.328-15.59c-.988 25.641-14.8 49.23-36.711 62.66m0-27.742c2.723-2 5.312-4.23 7.742-6.66a68.236 68.236 0 004.91-5.46 47.345 47.345 0 007.34-3.958c-4.012 11.059-11 20.707-19.992 27.969zm0-8.629a46.93 46.93 0 007.922-1.742 63.852 63.852 0 01-7.922 7.313zm39.71-34.28a1.545 1.545 0 00-1.37-1.438c-.75-.09-1.45.367-1.668 1.09-2.301 7.617-6.48 14.3-11.973 19.539a40.717 40.717 0 01-3.148 2.73 42.067 42.067 0 01-4.91 3.379c-1.5.902-3.07 1.71-4.692 2.422a44.572 44.572 0 01-13.656 3.629c-.793.078-1.39.75-1.39 1.539v40.48a1.548 1.548 0 001.546 1.551 1.5 1.5 0 00.762-.2 80.38 80.38 0 0029.43-28.78C156.12 108.57 160 94.43 160 80c0-1.61-.05-3.309-.16-5.05"/></svg>